<svg xmlns="http://www.w3.org/2000/svg" width="1024" height="1024" viewBox="0 0 100 100">
  <switch>
      <path fill="#ff4500" d="M58.6 59.5c-.2-.7-.3-1.5-.4-2.2-2.7.2-5.4.3-8.3.3-3.5 0-6.9-.2-10.2-.5-.1 1.3-.1 2.5-.2 3.8-.3 8.3-.2 16.7.7 25.4v.2c.1.9.3 1.8.6 2.7 2.2 6.4 9.3 9.9 15.8 7.6 6.4-2.2 9.9-9.3 7.6-15.7-2.2-6.8-4.1-14.1-5.6-21.6zM88.5 35.4C85.3 17.8 69.3 2.5 50 2.5S14.7 17.8 11.5 35.4c-.7 3.7 1.5 7.4 5.1 8.5 6.9 2.2 19.3 5.4 33.4 5.4s26.5-3.2 33.4-5.4c3.6-1.2 5.8-4.8 5.1-8.5zM50.1 11.2c-10.6 4.3-19.2 13.2-23.8 24.2-.6 1.4-2.1 2.2-3.7 1.7-.8-.2-1.5-.8-1.9-1.5-.4-.7-.5-1.5-.2-2.3C24 22.5 34.7 10.8 50 10.8c0 0 .2 0 .2.2 0 0 0 .1-.1.2z"/>
  </switch>
</svg>